<?xml version="1.0" encoding="iso-8859-1"?>
<!-- Generator: Adobe Illustrator 19.0.0, SVG Export Plug-In . SVG Version: 6.00 Build 0)  -->
<svg version="1.1" id="Capa_1" xmlns="http://www.w3.org/2000/svg" xmlns:xlink="http://www.w3.org/1999/xlink" x="0px" y="0px"
	 viewBox="0 0 386.612 386.612" style="enable-background:new 0 0 386.612 386.612;" xml:space="preserve">
<path style="fill:#fff;" d="M379.298,178.416c-4.18-3.135-9.927-3.135-14.629-1.045l-86.204,38.139v102.922l86.204,37.094
	c2.09,1.045,4.18,1.045,6.269,1.045c3.135,0,6.269-1.045,8.882-2.612c4.18-3.135,6.792-7.837,6.792-13.061v-149.42
	C386.612,186.253,384,181.029,379.298,178.416z"/>
<g>
	<path style="fill:#fff;" d="M64.261,142.89c35.004,0,63.739-28.735,63.739-63.739S99.265,15.412,64.261,15.412
		S0.522,44.147,0.522,79.151S29.257,142.89,64.261,142.89z"/>
	<path style="fill:#fff;" d="M209.502,142.89c35.004,0,63.739-28.735,63.739-63.739s-28.735-63.739-63.739-63.739
		s-63.739,28.735-63.739,63.739S174.498,142.89,209.502,142.89z"/>
</g>
<path style="fill:#fff;" d="M281.6,214.988v-28.735c0-14.629-11.494-26.122-26.122-26.122H26.122
	C11.494,160.131,0,171.624,0,186.253v158.825C0,359.706,11.494,371.2,26.122,371.2h229.355c14.629,0,26.122-11.494,26.122-26.122
	V317.91C281.6,317.91,281.6,214.988,281.6,214.988z"/>
<g>
</g>
<g>
</g>
<g>
</g>
<g>
</g>
<g>
</g>
<g>
</g>
<g>
</g>
<g>
</g>
<g>
</g>
<g>
</g>
<g>
</g>
<g>
</g>
<g>
</g>
<g>
</g>
<g>
</g>
</svg>
