<?xml version="1.0"?>
<svg xmlns="http://www.w3.org/2000/svg" viewBox="0 0 64 64" width="512" height="512"><g id="Vdo_recorder" data-name="Vdo recorder"><path fill='#fff' d="M62.525,19.149a1,1,0,0,0-.972-.044L47,26.382V24a5.006,5.006,0,0,0-5-5H9V15a3,3,0,0,1,3-3h9a3,3,0,0,0,3,3H46a3,3,0,0,0,3-3V10a3,3,0,0,0-3-3H24a3,3,0,0,0-3,3H12a5.006,5.006,0,0,0-5,5v4H6a5.006,5.006,0,0,0-5,5V48a5.006,5.006,0,0,0,5,5H42a5.006,5.006,0,0,0,5-5V45.618L61.553,52.9A1,1,0,0,0,63,52V20A1,1,0,0,0,62.525,19.149ZM23,10a1,1,0,0,1,1-1H46a1,1,0,0,1,1,1v2a1,1,0,0,1-1,1H24a1,1,0,0,1-1-1ZM45,48a3,3,0,0,1-3,3H6a3,3,0,0,1-3-3V24a3,3,0,0,1,3-3H42a3,3,0,0,1,3,3Zm16,2.382-14-7V28.618l14-7Z"/><path d="M42,23H6a1,1,0,0,0-1,1V48a1,1,0,0,0,1,1H42a1,1,0,0,0,1-1V24A1,1,0,0,0,42,23ZM41,47H7V25H41Z"/><path fill='#fff' d="M21.535,41.885a1,1,0,0,0,1.033-.062l7.243-5a1,1,0,0,0,0-1.646l-7.243-5A1,1,0,0,0,21,31V41A1,1,0,0,0,21.535,41.885ZM23,32.906,27.482,36,23,39.094Z"/><path fill='#fff' d="M9,46h5a1,1,0,0,0,0-2H9a1,1,0,0,0,0,2Z"/><path fill='#fff' d="M17,46h1a1,1,0,0,0,0-2H17a1,1,0,0,0,0,2Z"/></g></svg>
